<?xml version="1.0" encoding="iso-8859-1"?>
<!-- Generator: Adobe Illustrator 19.0.0, SVG Export Plug-In . SVG Version: 6.00 Build 0)  -->
<svg version="1.1" id="Layer_1" xmlns="http://www.w3.org/2000/svg" xmlns:xlink="http://www.w3.org/1999/xlink" x="0px" y="0px"
	 viewBox="0 0 512 512" style="enable-background:new 0 0 512 512;" xml:space="preserve">
	<g>
		<path d="M507.376,315.605c-13.585-18.918-27.401-20.864-58.197-6.144c-1.357-5.359-3.234-12.322-5.734-21.555
			c-0.427-1.579-1.297-2.995-2.509-4.096c-9.719-8.798-23.04-19.277-31.326-19.277l-69.914-0.085
			c-3.029-0.256-11.58-7.45-16.171-11.315c-4.992-4.198-9.609-8.03-14.08-10.675c4.309-15.326,7.168-41.131,6.571-70.69
			c2.074-4.924,4.233-11.093,6.69-18.176c5.615-16.23,13.201-37.948,23.083-51.413c49.69-2.347,89.421-43.383,89.421-93.645V0
			h-8.533c-50.739,0-92.1,40.491-93.713,90.837c-8.311,10.854-14.737,25.267-20.045,39.407c-2.688-20.548-7.253-41.361-14.234-60.57
			c4.983-18.202,15.036-38.665,23.031-46.515c3.362-3.302,3.413-8.704,0.111-12.066c-3.302-3.371-8.713-3.413-12.066-0.119
			c-7.194,7.066-15.07,20.668-21.154,35.567c-5.026-9.668-10.846-18.611-17.587-26.487c-3.063-3.584-8.439-3.994-12.023-0.93
			c-3.584,3.055-4.002,8.448-0.939,12.023c12.467,14.575,21.402,33.297,27.665,53.598c-8.235-6.758-17.63-13.065-27.145-16.077
			c-4.463-1.417-9.284,1.067-10.709,5.564c-1.425,4.489,1.067,9.284,5.564,10.701c14.541,4.608,31.42,21.675,39.535,29.884
			l0.034,0.034c4.335,23.74,5.828,47.906,5.589,68.992c-2.586-2.953-5.419-5.769-8.491-8.44
			c-0.444-40.465-32.486-74.103-73.395-75.87l-8.525-0.367l-0.367,8.525c-1.775,41.216,29.466,76.262,70.195,79.735
			c8.832,7.424,15.206,16.196,18.995,26.129c-1.126,11.17-2.731,20.156-4.489,25.984c-15.812,2.278-50.722,10.709-73.156,16.316
			c-8.815-1.391-57.557-15.352-90.615-25.182c-3.968-1.195-8.209,0.657-10.069,4.361l-19.695,39.398
			c-1.186,2.364-1.203,5.146-0.051,7.535c1.109,2.278,3.2,3.891,5.649,4.497c-17.459,5.436-33.843,14.592-44.834,21.572v-17.903
			H0.009V512h59.733v-25.6h110.933c17.408,0,34.97-1.323,52.19-3.942l110.609-16.819c4.028-0.051,8.115-0.529,11.742-1.348
			c10.189-1.425,19.925-6.298,28.177-14.08l129.348-100.727l0.205-0.162C513.008,340.983,514.953,326.178,507.376,315.605z
			 M492.135,336.111l-129.553,100.89l-0.657,0.572c-5.726,5.47-12.322,8.875-19.917,9.967c-3.106,0.691-6.204,1.041-9.199,1.041
			l-112.512,16.998c-16.375,2.492-33.067,3.755-49.621,3.755H59.743V328.559c18.449-13.295,59.332-36.651,84.659-27.511
			c0.077,0.034,0.137,0.077,0.213,0.102c0.981,0.367,1.946,0.785,2.893,1.263c0.068,0.034,0.128,0.06,0.196,0.094
			c0.435,0.205,0.759,0.393,1.143,0.589c0.981,0.563,1.997,1.075,2.918,1.766c1.621,1.229,3.379,2.423,5.308,3.652
			c1.638,1.058,3.337,2.039,5.052,2.995c0.29,0.171,0.512,0.316,0.819,0.486l1.109,0.623c0.034,0.017,0.068,0.034,0.102,0.051
			c3.302,1.732,6.741,3.243,10.257,4.591c0.222,0.085,0.41,0.205,0.631,0.29l1.954,0.7c0.145,0.051,0.29,0.077,0.435,0.128
			c3.507,1.22,7.091,2.261,10.752,3.081c0.162,0.043,0.333,0.111,0.486,0.145l1.323,0.256c0.623,0.128,1.195,0.205,1.809,0.316
			c1.391,0.265,2.782,0.529,4.198,0.734c1.835,0.273,3.652,0.478,5.461,0.64c3.132,0.29,6.289,0.478,9.463,0.478h33.289
			c7.253,0,14.259,1.28,20.727,3.678c10.778,3.994,20.053,11.102,26.419,20.608c0.171,0.264,0.282,0.495,0.444,0.751
			c0.597,0.939,1.161,1.869,1.638,2.756l0.375,0.734c0.495,1.015,0.939,1.997,1.22,2.876c0.017,0.051,0.026,0.111,0.043,0.162
			c0.273,0.887,0.418,1.681,0.461,2.398c0.008,0.128,0.017,0.239,0.026,0.316c0.009,0.751-0.111,1.399-0.401,1.894
			c-0.205,0.358-0.546,0.683-0.879,1.007c-0.06,0.06-0.06,0.077-0.128,0.145c-0.239,0.205-0.546,0.444-0.939,0.725
			c-0.162,0.12-0.341,0.239-0.521,0.35c-0.401,0.239-0.862,0.495-1.63,0.87c-0.162,0.068-0.333,0.145-0.495,0.213
			c-0.384,0.171-0.845,0.358-1.459,0.589c-0.751,0.273-1.553,0.529-2.406,0.768c-0.085,0.026-0.154,0.043-0.247,0.068
			c-1.988,0.538-4.215,0.973-6.554,1.314c-0.555,0.077-1.186,0.154-1.843,0.239c-0.316,0.034-0.64,0.068-0.964,0.111
			c-1.971,0.188-3.874,0.324-5.606,0.393c-0.06,0-0.102,0.034-0.154,0.043c-3.388-0.06-6.494-0.102-9.216-0.102h-82.918
			c-26.718,0-42.667,12.757-42.667,34.133c0,4.719,3.814,8.533,8.533,8.533c4.71,0,8.533-3.814,8.533-8.533
			c0-4.215,0-17.067,25.6-17.067h82.714c1.937,0.128,5.683,0.29,10.351,0.111c1.459,0.026,2.978,0.06,4.54,0.085
			c3.311,0.06,6.571,0.094,9.839,0.145l3.627,0.068c3.422,0.034,6.869,0.06,10.334,0.06c1.664,0,3.337-0.026,5.009-0.043
			c0.307,0,0.614,0,0.913-0.009c4.122-0.034,8.218-0.119,12.288-0.256c0.521-0.017,1.05-0.026,1.57-0.043
			c4.028-0.154,8.013-0.358,11.896-0.649c1.604-0.111,3.106-0.29,4.659-0.435c2.039-0.188,4.07-0.375,6.033-0.614
			c1.929-0.23,3.772-0.512,5.615-0.802c1.553-0.239,3.081-0.495,4.574-0.777c1.724-0.324,3.413-0.674,5.043-1.058
			c1.673-0.384,3.243-0.836,4.813-1.297c1.237-0.367,2.526-0.708,3.695-1.118c2.688-0.939,5.214-1.963,7.45-3.157l73.532-44.962
			c0.35-0.171,0.691-0.341,0.998-0.512c34.21-17.843,37.811-12.945,44.809-3.174C495.864,328.841,495.258,333.457,492.135,336.111z"
			/>
	</g>
</svg>
