<svg xmlns="http://www.w3.org/2000/svg" xmlns:xlink="http://www.w3.org/1999/xlink" version="1.1" x="0px" y="0px" viewBox="0 0 512 512" enable-background="new 0 0 512 512" xml:space="preserve"><path d="M433.604,182.269c-16.969-59.436-70.777-102.872-134.557-102.872c-48.105,0-90.542,24.718-115.792,62.373  c-12.843-10.718-29.249-17.156-47.154-17.156c-41.153,0-74.527,33.999-74.527,75.998c0,7.063,0.969,13.938,2.75,20.469  c-37.89,17.218-64.311,55.936-64.311,100.965c0,61.061,48.529,110.559,108.401,110.559h275.924  c70.496,0,127.649-58.311,127.649-130.183C511.99,248.329,479.648,201.956,433.604,182.269z M175.553,281.703  c0-49.562,40.218-89.778,89.824-89.778c19.969,0,38.42,6.5,53.343,17.531l17.747-17.719v55.062h-55.104l17.577-17.563  c-2.971-1.875-6.063-3.53-9.346-4.905c-7.64-3.22-15.812-4.875-24.217-4.875c-8.406,0-16.563,1.655-24.232,4.875  c-7.422,3.125-14.077,7.625-19.796,13.343c-5.719,5.75-10.233,12.406-13.358,19.813c-3.234,7.656-4.892,15.812-4.892,24.218  c0,4.905,0.563,9.719,1.656,14.374H176.71C175.944,291.422,175.553,286.609,175.553,281.703z M265.377,371.543  c-20.014,0-38.498-6.563-53.435-17.655l-17.641,17.655v-55.092h55.091l-17.687,17.656c2.984,1.938,6.141,3.594,9.438,5  c7.672,3.219,15.827,4.875,24.233,4.875c8.404,0,16.576-1.656,24.217-4.875c7.438-3.156,14.095-7.625,19.813-13.375  c5.734-5.721,10.219-12.375,13.375-19.78c3.234-7.656,4.874-15.813,4.874-24.249c0-4.875-0.563-9.688-1.655-14.344h28.063  c0.75,4.654,1.141,9.469,1.141,14.344C355.201,331.326,315,371.543,265.377,371.543z"/></svg>
