<?xml version="1.0" encoding="UTF-8" standalone="no"?>
<svg
   xmlns:dc="http://purl.org/dc/elements/1.1/"
   xmlns:cc="http://creativecommons.org/ns#"
   xmlns:rdf="http://www.w3.org/1999/02/22-rdf-syntax-ns#"
   xmlns:svg="http://www.w3.org/2000/svg"
   xmlns="http://www.w3.org/2000/svg"
   xmlns:sodipodi="http://sodipodi.sourceforge.net/DTD/sodipodi-0.dtd"
   xmlns:inkscape="http://www.inkscape.org/namespaces/inkscape"
   version="1.1"
   x="0px"
   y="0px"
   viewBox="0 0 72 90"
   enable-background="new 0 0 72 72"
   xml:space="preserve"
   id="svg2"
   inkscape:version="0.91 r13725"
   sodipodi:docname="noun_175953_cc.svg"><metadata
     id="metadata28"><rdf:RDF><cc:Work
         rdf:about=""><dc:format>image/svg+xml</dc:format><dc:type
           rdf:resource="http://purl.org/dc/dcmitype/StillImage" /></cc:Work></rdf:RDF></metadata><defs
     id="defs26" /><sodipodi:namedview
     pagecolor="#ffffff"
     bordercolor="#666666"
     borderopacity="1"
     objecttolerance="10"
     gridtolerance="10"
     guidetolerance="10"
     inkscape:pageopacity="0"
     inkscape:pageshadow="2"
     inkscape:window-width="720"
     inkscape:window-height="480"
     id="namedview24"
     showgrid="false"
     inkscape:zoom="2.6222222"
     inkscape:cx="36"
     inkscape:cy="45"
     inkscape:window-x="0"
     inkscape:window-y="0"
     inkscape:window-maximized="0"
     inkscape:current-layer="svg2" /><g
     id="g4"><path
       fill="#000000"
       d="M70.5,40.6l-4.3-3.8c-0.1-0.1-0.1-0.2-0.2-0.3l-2.3-14.8c-0.2-1.3-1.3-2.3-2.7-2.3h-4.5   c-0.1,0-0.3-0.1-0.4-0.2c-1.3-1.4-3.2-2.3-5.3-2.3c-1.9,0-3.7,0.8-5,2c-0.1,0.1-0.2,0.1-0.2,0.1l-11.9,2.2c-0.1,0-0.2,0-0.4-0.1   L28,17.9c-1.1-0.7-2.6-0.6-3.5,0.4c-1.2,1.3-0.9,3.3,0.5,4.1l6.5,4c0.4,0.3,0.9,0.4,1.4,0.4c0.2,0,0.3,0,0.5,0l9.6-1.8   c0.3-0.1,0.6,0.2,0.6,0.5v15.2l0,27.5c0,1.5,1.1,2.8,2.6,2.8c1.6,0.1,2.8-1.2,2.8-2.7V48.3c0-0.3,0.3-0.6,0.6-0.5   c0.4,0.1,0.8,0.1,1.2,0.1s0.8,0,1.2-0.1c0.3-0.1,0.6,0.2,0.6,0.5l0,20c0,1.5,1.1,2.8,2.6,2.8c1.6,0.1,2.8-1.2,2.8-2.7V40.7V25.3   c0-0.3,0.2-0.5,0.5-0.5h-0.2c0.2,0,0.5,0.2,0.5,0.4l2,13.2c0.1,0.6,0.4,1.2,0.9,1.6l5.3,4.7c0.5,0.5,1.2,0.7,1.8,0.7   c0.8,0,1.6-0.3,2.1-1C71.9,43.3,71.6,41.6,70.5,40.6z"
       id="path6" /><circle
       fill="#000000"
       cx="50.8"
       cy="6.9"
       r="6.1"
       id="circle8" /><g
       id="g10"><path
         fill="#000000"
         d="M15.2,49.7H2.3c-1,0-1.8-0.8-1.8-1.8V35c0-1,0.8-1.8,1.8-1.8h12.9c1,0,1.8,0.8,1.8,1.8v12.9    C17,48.9,16.2,49.7,15.2,49.7z M4.7,46.1h8.1c0.3,0,0.6-0.3,0.6-0.6v-8.1c0-0.3-0.3-0.6-0.6-0.6H4.7c-0.3,0-0.6,0.3-0.6,0.6v8.1    C4.1,45.9,4.4,46.1,4.7,46.1z"
         id="path12" /></g><g
       id="g14"><path
         fill="#000000"
         d="M15.2,69.2H2.3c-1,0-1.8-0.8-1.8-1.8V54.4c0-1,0.8-1.8,1.8-1.8h12.9c1,0,1.8,0.8,1.8,1.8v12.9    C17,68.4,16.2,69.2,15.2,69.2z M4.7,65.6h8.1c0.3,0,0.6-0.3,0.6-0.6v-8.1c0-0.3-0.3-0.6-0.6-0.6H4.7c-0.3,0-0.6,0.3-0.6,0.6V65    C4.1,65.3,4.4,65.6,4.7,65.6z"
         id="path16" /></g><path
       fill="#000000"
       d="M21.1,16c-0.6-0.6-1.7-0.6-2.4-0.1l-1.3,0.9c-0.2,0.1-0.4,0-0.4-0.2v-1c0-1-0.8-1.8-1.8-1.8H2.3   c-1,0-1.8,0.8-1.8,1.8v12.9c0,1,0.8,1.8,1.8,1.8h12.9c1,0,1.8-0.8,1.8-1.8v-6.8c0-0.1,0-0.2,0.1-0.2l3.8-2.7   C21.8,18.1,22,16.8,21.1,16z M13.4,26.1c0,0.3-0.3,0.6-0.6,0.6H4.7c-0.3,0-0.6-0.3-0.6-0.6V18c0-0.3,0.3-0.6,0.6-0.6h8.1   c0.3,0,0.6,0.3,0.6,0.6v1.6c0,0.1,0,0.2-0.1,0.2l-2.8,2c-0.1,0.1-0.3,0.1-0.4-0.1l-0.8-1.2c-0.5-0.8-1.6-1.1-2.4-0.6   c-0.9,0.5-1.2,1.7-0.6,2.6l2.1,3c0.3,0.4,0.7,0.7,1.2,0.7c0.1,0,0.2,0,0.3,0c0.4,0,0.7-0.1,1.1-0.3l2.1-1.5c0.2-0.1,0.4,0,0.4,0.2   V26.1z"
       id="path18" /></g></svg>